<?xml version="1.0" encoding="iso-8859-1"?>
<!-- Generator: Adobe Illustrator 19.0.0, SVG Export Plug-In . SVG Version: 6.00 Build 0)  -->
<svg version="1.1" id="Capa_1" xmlns="http://www.w3.org/2000/svg" xmlns:xlink="http://www.w3.org/1999/xlink" x="0px" y="0px"
	 viewBox="0 0 511.999 511.999" style="enable-background:new 0 0 511.999 511.999;" xml:space="preserve">
<path style="fill:#ED5565;" d="M69.825,49.133v393.056c0-22.848,18.525-41.373,41.373-41.373V7.76
	C88.35,7.76,69.825,26.285,69.825,49.133z"/>
<path style="fill:#E6E9ED;" d="M111.199,483.562c-22.848,0-41.373-18.525-41.373-41.373s18.525-41.373,41.373-41.373h310.289h0.01
	v82.736L111.199,483.562z"/>
<polygon style="fill:#ED5565;" points="214.632,483.552 214.632,504.238 183.602,493.895 152.572,504.238 152.572,483.562 
	152.572,442.179 214.632,442.179 214.632,442.189 "/>
<path style="fill:#656D78;" d="M421.497,400.816h-0.01H111.199v-93.09v-72.403V162.92V90.506V7.76h310.289
	c11.439,0,20.687,9.247,20.687,20.687V380.13C442.174,391.558,432.937,400.805,421.497,400.816z"/>
<path style="fill:#515760;" d="M421.488,7.76h-31.033c11.44,0,20.687,9.247,20.687,20.687V380.13
	c0,11.429-9.236,20.676-20.676,20.687h31.023h0.01c11.439-0.01,20.676-9.257,20.676-20.687V28.446
	C442.174,17.007,432.927,7.76,421.488,7.76z"/>
<polygon style="fill:#FFCE54;" points="349.095,152.566 349.095,193.939 297.378,193.939 297.378,307.726 256.005,307.726 
	256.005,193.949 204.289,193.949 204.289,152.566 256.005,152.566 256.005,100.849 297.378,100.849 297.378,152.566 "/>
<rect x="390.46" y="400.82" style="fill:#CCD1D9;" width="31.03" height="82.74"/>
<path d="M442.18,67.234c4.272,0,7.757-3.486,7.757-7.757v-31.03c0-0.053-0.007-0.105-0.008-0.158
	C449.844,12.677,437.121,0,421.489,0H111.194C84.103,0,62.063,22.04,62.063,49.131v393.054c0,27.091,22.04,49.131,49.131,49.131
	h33.614v12.925c0,0.016,0.002,0.032,0.002,0.049c0.002,0.176,0.014,0.353,0.027,0.53c0.007,0.088,0.009,0.177,0.018,0.265
	c0.015,0.133,0.039,0.267,0.062,0.4c0.021,0.131,0.039,0.263,0.067,0.392c0.02,0.088,0.046,0.176,0.069,0.265
	c0.042,0.169,0.086,0.337,0.139,0.503c0.006,0.016,0.008,0.033,0.014,0.049c0.008,0.025,0.022,0.047,0.031,0.074
	c0.121,0.351,0.265,0.69,0.432,1.016c0.016,0.032,0.03,0.067,0.047,0.098c0.168,0.315,0.36,0.613,0.568,0.9
	c0.053,0.072,0.105,0.142,0.159,0.212c0.21,0.27,0.433,0.528,0.676,0.768c0.044,0.043,0.092,0.083,0.137,0.125
	c0.227,0.213,0.468,0.412,0.719,0.598c0.052,0.037,0.101,0.078,0.154,0.114c0.288,0.201,0.59,0.382,0.905,0.542
	c0.052,0.027,0.105,0.051,0.158,0.077c0.313,0.152,0.636,0.287,0.972,0.396c0.015,0.005,0.029,0.012,0.044,0.016
	c0.334,0.107,0.68,0.186,1.032,0.246c0.086,0.015,0.172,0.027,0.259,0.039c0.325,0.045,0.655,0.075,0.992,0.078
	c0.025,0,0.049,0.006,0.074,0.006c0.022,0,0.044-0.005,0.066-0.005c0.35-0.003,0.692-0.035,1.028-0.083
	c0.079-0.011,0.158-0.022,0.236-0.035c0.372-0.065,0.735-0.153,1.088-0.268c0.012-0.004,0.024-0.005,0.036-0.009l28.576-9.525
	l28.576,9.525c0.012,0.004,0.024,0.005,0.036,0.009c0.353,0.115,0.716,0.203,1.088,0.268c0.079,0.013,0.158,0.024,0.236,0.035
	c0.336,0.047,0.679,0.08,1.028,0.083c0.021,0,0.043,0.005,0.066,0.005c0.025,0,0.049-0.006,0.074-0.006
	c0.337-0.003,0.667-0.032,0.992-0.078c0.087-0.012,0.172-0.024,0.258-0.039c0.352-0.061,0.699-0.139,1.034-0.246
	c0.013-0.004,0.026-0.01,0.039-0.014c0.337-0.11,0.663-0.246,0.978-0.399c0.052-0.025,0.103-0.049,0.154-0.074
	c0.316-0.163,0.62-0.343,0.909-0.546c0.05-0.035,0.098-0.074,0.147-0.111c0.255-0.186,0.497-0.388,0.726-0.603
	c0.043-0.041,0.09-0.079,0.132-0.121c0.244-0.239,0.468-0.499,0.679-0.77c0.053-0.07,0.105-0.139,0.156-0.21
	c0.208-0.288,0.401-0.586,0.569-0.901c0.017-0.031,0.03-0.066,0.047-0.097c0.169-0.326,0.312-0.667,0.433-1.017
	c0.009-0.026,0.023-0.049,0.031-0.074c0.006-0.016,0.008-0.033,0.014-0.049c0.053-0.165,0.097-0.334,0.139-0.503
	c0.022-0.089,0.049-0.177,0.069-0.265c0.027-0.129,0.046-0.261,0.067-0.392c0.022-0.133,0.046-0.267,0.062-0.4
	c0.009-0.088,0.011-0.177,0.018-0.265c0.013-0.178,0.025-0.355,0.027-0.53c0-0.017,0.002-0.033,0.002-0.049v-12.929H442.18
	c4.285,0,7.757-3.473,7.757-7.757c0-4.285-3.473-7.757-7.757-7.757h-12.927v-68.313c11.869-3.374,20.602-14.273,20.676-27.192
	c0.001-0.055,0.008-0.108,0.008-0.163V90.506c0-4.283-3.486-7.757-7.757-7.757c-4.283,0-7.757,3.475-7.757,7.757v289.539
	c0,0.027-0.004,0.053-0.004,0.08c0,7.115-5.777,12.903-12.887,12.927c-0.012,0-0.024-0.002-0.036-0.002
	c-0.027,0-0.053,0.004-0.08,0.004H118.951V15.515h302.538c7.129,0,12.929,5.8,12.929,12.929c0,0.027,0.004,0.053,0.004,0.08v30.952
	C434.422,63.748,437.897,67.234,442.18,67.234z M77.578,406.403v-57.302c0-15.865,11.051-29.19,25.858-32.703v77.274
	C93.518,395.252,84.587,399.814,77.578,406.403z M103.436,171.586v56.595c-9.918,1.58-18.849,6.142-25.858,12.731v-36.624
	C77.578,188.423,88.629,175.099,103.436,171.586z M77.578,168.507v-36.626c0-15.865,11.051-29.19,25.858-32.703v56.597
	C93.518,157.356,84.587,161.918,77.578,168.507z M103.436,243.991v56.597c-9.918,1.58-18.849,6.142-25.858,12.731v-36.626
	C77.578,260.828,88.629,247.504,103.436,243.991z M103.436,16.428v66.941c-9.918,1.58-18.849,6.142-25.858,12.731V49.131
	C77.578,33.265,88.629,19.941,103.436,16.428z M206.867,449.938v43.539l-20.819-6.939c-0.058-0.019-0.116-0.03-0.175-0.048
	c-0.136-0.042-0.275-0.08-0.413-0.115c-0.112-0.027-0.223-0.053-0.335-0.076c-0.136-0.027-0.273-0.051-0.41-0.071
	c-0.118-0.017-0.234-0.033-0.353-0.045c-0.131-0.012-0.263-0.021-0.395-0.027c-0.124-0.006-0.249-0.011-0.373-0.011
	c-0.124,0-0.248,0.005-0.374,0.011c-0.132,0.006-0.265,0.015-0.396,0.027c-0.116,0.012-0.232,0.028-0.35,0.045
	c-0.139,0.02-0.277,0.043-0.415,0.071c-0.109,0.022-0.218,0.047-0.327,0.075c-0.142,0.035-0.284,0.075-0.424,0.118
	c-0.056,0.017-0.112,0.028-0.168,0.046l-20.819,6.939v-43.539L206.867,449.938L206.867,449.938z M222.382,475.796v-25.858h23.27
	c4.285,0,7.757-3.473,7.757-7.757c0-4.285-3.473-7.758-7.757-7.758H121.535c-4.285,0-7.757,3.473-7.757,7.758
	s3.473,7.757,7.757,7.757h23.272V475.8h-33.614c-18.536,0-33.616-15.08-33.616-33.616s15.08-33.616,33.616-33.616h302.544v67.227
	H222.382V475.796z"/>
<path d="M256,315.485h41.373c4.285,0,7.758-3.473,7.758-7.758V201.701h43.959c4.285,0,7.757-3.473,7.757-7.757V152.57
	c0-4.285-3.473-7.757-7.757-7.757H305.13v-43.959c0-4.285-3.473-7.757-7.758-7.757H256c-4.285,0-7.757,3.473-7.757,7.757v43.959
	h-43.961c-4.285,0-7.757,3.473-7.757,7.757v41.377c0,4.285,3.473,7.757,7.757,7.757h43.961v106.023
	C248.243,312.012,251.715,315.485,256,315.485z M263.757,193.947c0-4.285-3.473-7.757-7.757-7.757h-43.961v-25.862H256
	c4.285,0,7.757-3.473,7.757-7.757v-43.959h25.858v43.959c0,4.285,3.473,7.757,7.757,7.757h43.959v25.858h-43.959
	c-4.285,0-7.757,3.473-7.757,7.757V299.97h-25.858L263.757,193.947L263.757,193.947z"/>
<g>
</g>
<g>
</g>
<g>
</g>
<g>
</g>
<g>
</g>
<g>
</g>
<g>
</g>
<g>
</g>
<g>
</g>
<g>
</g>
<g>
</g>
<g>
</g>
<g>
</g>
<g>
</g>
<g>
</g>
</svg>
