<svg id="Layer_5" enable-background="new 0 0 64 64" height="512" viewBox="0 0 64 64" width="512" xmlns="http://www.w3.org/2000/svg"><g><g><g><circle cx="18" cy="18" fill="#69d6f4" r="16"/></g><g><path d="m22.55 26.97c.63-2.27 1.78-4.31 3.32-6.01 2.08-2.32 4.88-3.98 8.04-4.64 1-.21 2.03-.32 3.09-.32 8.04 0 14.6 6.32 14.98 14.26.65-.17 1.32-.26 2.02-.26 4.42 0 8 3.58 8 8s-3.58 8-8 8h-8-6-8-8-6-8c-4.42 0-8-3.58-8-8 0-3.65 2.44-6.73 5.78-7.69.7-.2 1.45-.31 2.22-.31.87 0 1.71.14 2.5.4 1.03-2.58 3.55-4.4 6.5-4.4 1.3 0 2.51.35 3.55.97z" fill="#e6e9ed"/></g><g><circle cx="40" cy="55" fill="#ff826e" r="2"/></g><g><circle cx="24" cy="55" fill="#ff826e" r="2"/></g><g><circle cx="56" cy="60" fill="#ff826e" r="2"/></g><g><circle cx="32" cy="60" fill="#ff826e" r="2"/></g><g><circle cx="8" cy="60" fill="#ff826e" r="2"/></g><g><circle cx="22" cy="38" fill="#ff826e" r="2"/></g><g><circle cx="30" cy="38" fill="#ff826e" r="2"/></g><g><circle cx="38" cy="38" fill="#ff826e" r="2"/></g></g><g><path d="m37 21v-2c-6.617 0-12 5.383-12 12h2c0-5.514 4.486-10 10-10z"/><path d="m38.819 21.165c.622.115 1.233.289 1.817.517l.729-1.862c-.703-.275-1.437-.483-2.183-.621z"/><path d="m59 38c0-2.757-2.243-5-5-5v2c1.654 0 3 1.346 3 3s-1.346 3-3 3h-3v2h3c2.757 0 5-2.243 5-5z"/><path d="m47 41h2v2h-2z"/><path d="m43 41h2v2h-2z"/><path d="m54 47c4.962 0 9-4.038 9-9s-4.038-9-9-9c-.383 0-.759.032-1.13.079-.952-7.979-7.706-14.079-15.87-14.079-.766 0-1.513.073-2.251.177-1.356-8.149-8.372-14.177-16.749-14.177-9.374 0-17 7.626-17 17 0 4.527 1.79 8.801 4.947 11.975-2.93 1.486-4.947 4.521-4.947 8.025 0 4.962 4.038 9 9 9h7v11c0 .551-.449 1-1 1h-5.184c-.414-1.161-1.514-2-2.816-2-1.654 0-3 1.346-3 3s1.346 3 3 3c1.302 0 2.402-.839 2.816-2h5.184c1.654 0 3-1.346 3-3v-11h4v5.184c-1.161.414-2 1.514-2 2.816 0 1.654 1.346 3 3 3s3-1.346 3-3c0-1.302-.839-2.402-2-2.816v-5.184h6v10.184c-1.161.414-2 1.514-2 2.816 0 1.654 1.346 3 3 3s3-1.346 3-3c0-1.302-.839-2.402-2-2.816v-10.184h6v5.184c-1.161.414-2 1.514-2 2.816 0 1.654 1.346 3 3 3s3-1.346 3-3c0-1.302-.839-2.402-2-2.816v-5.184h4v11c0 1.654 1.346 3 3 3h5.184c.414 1.161 1.514 2 2.816 2 1.654 0 3-1.346 3-3s-1.346-3-3-3c-1.302 0-2.402.839-2.816 2h-5.184c-.551 0-1-.449-1-1v-11zm-46 14c-.551 0-1-.449-1-1s.449-1 1-1 1 .449 1 1-.449 1-1 1zm16-5c-.551 0-1-.449-1-1s.449-1 1-1 1 .449 1 1-.449 1-1 1zm8 5c-.551 0-1-.449-1-1s.449-1 1-1 1 .449 1 1-.449 1-1 1zm8-5c-.551 0-1-.449-1-1s.449-1 1-1 1 .449 1 1-.449 1-1 1zm16 3c.551 0 1 .449 1 1s-.449 1-1 1-1-.449-1-1 .449-1 1-1zm-34.034-33.422c-.939-.375-1.944-.578-2.966-.578h-7.147c-.474-1.862-.752-3.9-.82-6h13.944c-.017.529-.045 1.054-.089 1.575-1.26 1.462-2.253 3.154-2.922 5.003zm-18.911-6.578h5.978c.063 2.083.32 4.115.761 6h-5.04c-.975-1.843-1.558-3.878-1.699-6zm14.945-16c2.232 0 4.254 2.387 5.546 6h-11.092c1.292-3.613 3.314-6 5.546-6zm6.159 8c.462 1.821.746 3.858.816 6h-13.951c.07-2.142.354-4.179.816-6zm-15.133 6h-5.975c.143-2.155.732-4.188 1.693-6h5.034c-.43 1.84-.689 3.861-.752 6zm17.196-6h5.055c.737 1.403 1.248 2.945 1.512 4.581-2.146.587-4.115 1.6-5.802 2.958.004-.18.013-.359.013-.539 0-2.512-.281-4.874-.778-7zm3.787-2h-4.345c-.661-2.033-1.535-3.779-2.58-5.108 2.778.995 5.181 2.779 6.925 5.108zm-17.107-5.089c-1.038 1.327-1.908 3.066-2.566 5.089h-4.307c1.736-2.304 4.114-4.087 6.873-5.089zm-6.891 23.089h7.715c-.719.633-1.327 1.387-1.782 2.238-.638-.141-1.284-.238-1.944-.238-.664 0-1.309.077-1.932.214-.763-.676-1.455-1.414-2.057-2.214zm-3.011 11c0-3.86 3.14-7 7-7 .417 0 .828.045 1.233.117-.147.605-.233 1.233-.233 1.883h2c0-3.309 2.691-6 6-6 .83 0 1.645.175 2.397.503-.253 1.127-.397 2.295-.397 3.497h2c0-7.72 6.28-14 14-14 7.225 0 13.185 5.46 13.91 12.558-3.443 1.265-5.91 4.567-5.91 8.442h2c0-3.86 3.14-7 7-7s7 3.14 7 7-3.14 7-7 7h-44c-3.86 0-7-3.14-7-7z"/><path d="m38 35c-1.654 0-3 1.346-3 3s1.346 3 3 3 3-1.346 3-3-1.346-3-3-3zm0 4c-.551 0-1-.449-1-1s.449-1 1-1 1 .449 1 1-.449 1-1 1z"/><path d="m30 35c-1.654 0-3 1.346-3 3s1.346 3 3 3 3-1.346 3-3-1.346-3-3-3zm0 4c-.551 0-1-.449-1-1s.449-1 1-1 1 .449 1 1-.449 1-1 1z"/><path d="m22 35c-1.654 0-3 1.346-3 3s1.346 3 3 3 3-1.346 3-3-1.346-3-3-3zm0 4c-.551 0-1-.449-1-1s.449-1 1-1 1 .449 1 1-.449 1-1 1z"/><path d="m51 20h2c0-3.309-2.691-6-6-6v2c2.206 0 4 1.794 4 4z"/><path d="m55 20h2c0-5.514-4.486-10-10-10v2c4.411 0 8 3.589 8 8z"/><path d="m59 20h2c0-7.72-6.28-14-14-14v2c6.617 0 12 5.383 12 12z"/></g></g></svg>