<svg id="Layer_5" enable-background="new 0 0 64 64" height="512" viewBox="0 0 64 64" width="512" xmlns="http://www.w3.org/2000/svg" xmlns:xlink="http://www.w3.org/1999/xlink"><linearGradient id="SVGID_1_" gradientUnits="userSpaceOnUse" x1="32" x2="32" y1="63" y2="1"><stop offset="0" stop-color="#9f2fff"/><stop offset="1" stop-color="#0bb1d3"/></linearGradient><path d="m27 31h-2c0-6.617 5.383-12 12-12v2c-5.514 0-10 4.486-10 10zm11.819-9.835c.622.115 1.233.289 1.817.517l.729-1.862c-.703-.275-1.437-.483-2.183-.621zm15.181 11.835v2c1.654 0 3 1.346 3 3s-1.346 3-3 3h-3v2h3c2.757 0 5-2.243 5-5s-2.243-5-5-5zm-11 10h2v-2h-2zm4 0h2v-2h-2zm16-5c0 4.962-4.038 9-9 9h-7v11c0 .551.449 1 1 1h5.184c.414-1.161 1.514-2 2.816-2 1.654 0 3 1.346 3 3s-1.346 3-3 3c-1.302 0-2.402-.839-2.816-2h-5.184c-1.654 0-3-1.346-3-3v-11h-4v5.184c1.161.414 2 1.514 2 2.816 0 1.654-1.346 3-3 3s-3-1.346-3-3c0-1.302.839-2.402 2-2.816v-5.184h-6v10.184c1.161.414 2 1.514 2 2.816 0 1.654-1.346 3-3 3s-3-1.346-3-3c0-1.302.839-2.402 2-2.816v-10.184h-6v5.184c1.161.414 2 1.514 2 2.816 0 1.654-1.346 3-3 3s-3-1.346-3-3c0-1.302.839-2.402 2-2.816v-5.184h-4v11c0 1.654-1.346 3-3 3h-5.184c-.414 1.161-1.514 2-2.816 2-1.654 0-3-1.346-3-3s1.346-3 3-3c1.302 0 2.402.839 2.816 2h5.184c.551 0 1-.449 1-1v-11h-7c-4.962 0-9-4.038-9-9 0-3.504 2.017-6.539 4.947-8.025-3.157-3.174-4.947-7.448-4.947-11.975 0-9.374 7.626-17 17-17 8.377 0 15.393 6.028 16.749 14.177.738-.104 1.485-.177 2.251-.177 8.164 0 14.918 6.1 15.87 14.079.371-.047.747-.079 1.13-.079 4.962 0 9 4.038 9 9zm-54 22c0-.551-.449-1-1-1s-1 .449-1 1 .449 1 1 1 1-.449 1-1zm16-5c0-.551-.449-1-1-1s-1 .449-1 1 .449 1 1 1 1-.449 1-1zm8 5c0-.551-.449-1-1-1s-1 .449-1 1 .449 1 1 1 1-.449 1-1zm8-5c0-.551-.449-1-1-1s-1 .449-1 1 .449 1 1 1 1-.449 1-1zm14 5c0 .551.449 1 1 1s1-.449 1-1-.449-1-1-1-1 .449-1 1zm-30.112-39.425c.043-.521.072-1.047.089-1.575h-13.944c.068 2.1.346 4.138.82 6h7.147c1.022 0 2.027.203 2.966.578.669-1.849 1.662-3.541 2.922-5.003zm-20.134 4.425h5.041c-.441-1.885-.698-3.917-.761-6h-5.979c.141 2.122.724 4.157 1.699 6zm7.7-16h11.093c-1.293-3.613-3.315-6-5.547-6s-4.254 2.387-5.546 6zm-.613 2c-.462 1.821-.746 3.858-.816 6h13.951c-.07-2.142-.354-4.179-.816-6zm-2.063 0h-5.034c-.961 1.812-1.55 3.845-1.693 6h5.975c.063-2.139.322-4.16.752-6zm17.222 7c0 .18-.009.359-.012.539 1.687-1.358 3.656-2.371 5.802-2.958-.264-1.635-.775-3.178-1.512-4.581h-5.055c.496 2.126.777 4.488.777 7zm-3.916-14.108c1.045 1.33 1.919 3.076 2.58 5.108h4.345c-1.744-2.329-4.147-4.113-6.925-5.108zm-17.055 5.108h4.307c.658-2.023 1.528-3.762 2.566-5.089-2.759 1.002-5.137 2.785-6.873 5.089zm2.039 20.214c.623-.137 1.268-.214 1.932-.214.66 0 1.306.097 1.944.238.455-.851 1.064-1.605 1.782-2.238h-7.715c.602.8 1.294 1.538 2.057 2.214zm52.932 8.786c0-3.86-3.14-7-7-7s-7 3.14-7 7h-2c0-3.875 2.467-7.177 5.91-8.442-.725-7.098-6.685-12.558-13.91-12.558-7.72 0-14 6.28-14 14h-2c0-1.202.144-2.37.397-3.497-.752-.328-1.567-.503-2.397-.503-3.309 0-6 2.691-6 6h-2c0-.65.086-1.278.233-1.883-.405-.072-.816-.117-1.233-.117-3.86 0-7 3.14-7 7s3.14 7 7 7h44c3.86 0 7-3.14 7-7zm-20 0c0 1.654-1.346 3-3 3s-3-1.346-3-3 1.346-3 3-3 3 1.346 3 3zm-2 0c0-.551-.449-1-1-1s-1 .449-1 1 .449 1 1 1 1-.449 1-1zm-6 0c0 1.654-1.346 3-3 3s-3-1.346-3-3 1.346-3 3-3 3 1.346 3 3zm-2 0c0-.551-.449-1-1-1s-1 .449-1 1 .449 1 1 1 1-.449 1-1zm-6 0c0 1.654-1.346 3-3 3s-3-1.346-3-3 1.346-3 3-3 3 1.346 3 3zm-2 0c0-.551-.449-1-1-1s-1 .449-1 1 .449 1 1 1 1-.449 1-1zm24-22c2.206 0 4 1.794 4 4h2c0-3.309-2.691-6-6-6zm0-4c4.411 0 8 3.589 8 8h2c0-5.514-4.486-10-10-10zm12 8h2c0-7.72-6.28-14-14-14v2c6.617 0 12 5.383 12 12z" fill="url(#SVGID_1_)"/></svg>