<svg id="Layer_5" enable-background="new 0 0 62 62" height="512" viewBox="0 0 62 62" width="512" xmlns="http://www.w3.org/2000/svg"><g><g><g><path d="m53 49h-48c-2.209 0-4-1.791-4-4v-32c0-2.209 1.791-4 4-4h48c2.209 0 4 1.791 4 4v32c0 2.209-1.791 4-4 4z" fill="#ccd1d9"/></g><g><path d="m52 41h-46c-.552 0-1-.448-1-1v-26c0-.552.448-1 1-1h46c.552 0 1 .448 1 1v26c0 .552-.448 1-1 1z" fill="#69d6f4"/></g><g><path d="m43 58v1h-28v-1c0-1.66 1.34-3 3-3h3 16 3c1.66 0 3 1.34 3 3z" fill="#969faa"/></g><g><path d="m21 49h16v6h-16z" fill="#aab2bd"/></g><g><path d="m61 59c0 .55-.22 1.05-.59 1.41-.36.37-.86.59-1.41.59h-8c-1.1 0-2-.9-2-2 0-1.66.67-3.16 1.76-4.24 1.08-1.09 2.58-1.76 4.24-1.76 3.31 0 6 2.69 6 6z" fill="#aab2bd"/></g><g><path d="m49 45h4v4h-4z" fill="#ff826e"/></g><g><path d="m41 45h4v4h-4z" fill="#ff826e"/></g><g><path d="m47.471 13.343c.986 2.357 1.529 4.943 1.529 7.657 0 11.043-8.957 20-20 20-5.514 0-10.514-2.243-14.143-5.857-3.614-3.629-5.857-8.629-5.857-14.143 0-2.714.543-5.3 1.529-7.657 3-7.243 10.142-12.343 18.471-12.343s15.471 5.1 18.471 12.343z" fill="#fcd770"/></g><g><path d="m41.93 15.64c.69 1.65 1.07 3.46 1.07 5.36 0 7.73-6.27 14-14 14-3.86 0-7.36-1.57-9.9-4.1-2.53-2.54-4.1-6.04-4.1-9.9 0-1.9.38-3.71 1.07-5.36 2.1-5.07 7.1-8.64 12.93-8.64s10.83 3.57 12.93 8.64z" fill="#ffeaa7"/></g></g><g><path d="m55 52c-3.86 0-7 3.141-7 7 0 1.654 1.346 3 3 3h8c1.654 0 3-1.346 3-3 0-3.859-3.14-7-7-7zm4 8h-8c-.551 0-1-.448-1-1 0-2.757 2.243-5 5-5s5 2.243 5 5c0 .552-.449 1-1 1z"/><path d="m40 54h-2v-4h15c2.757 0 5-2.243 5-5v-32c0-2.757-2.243-5-5-5h-7.539c-3.85-4.864-9.791-8-16.461-8s-12.611 3.136-16.461 8h-7.539c-2.757 0-5 2.243-5 5v32c0 2.757 2.243 5 5 5h15v4h-2c-2.206 0-4 1.794-4 4v2h30v-2c0-2.206-1.794-4-4-4zm4-6h-2v-2h2zm8 0h-2v-2h2zm-5.875-35.175-3.697 1.531c-2.315-4.66-6.972-7.943-12.428-8.305v-4c7.118.373 13.198 4.669 16.125 10.774zm-17.125-4.825c7.168 0 13 5.832 13 13s-5.832 13-13 13-13-5.832-13-13 5.832-13 13-13zm18.949 12h-4c-.088-1.32-.342-2.593-.751-3.799l3.694-1.53c.598 1.682.96 3.469 1.057 5.329zm-28.81 12.275c2.404 2.105 5.478 3.45 8.861 3.674v4c-4.484-.235-8.553-2.023-11.688-4.847zm14.66 2.924 1.531 3.694c-1.683.597-3.47.959-5.33 1.056v-4c1.32-.087 2.593-.342 3.799-.75zm3.377 2.926-1.531-3.697c1.167-.58 2.246-1.303 3.217-2.153l2.827 2.827c-1.347 1.212-2.863 2.231-4.513 3.023zm5.926-4.437-2.827-2.827c.85-.971 1.573-2.05 2.153-3.217l3.697 1.531c-.792 1.651-1.811 3.167-3.023 4.513zm3.791-6.359-3.694-1.53c.409-1.206.663-2.479.751-3.799h4c-.098 1.86-.46 3.647-1.057 5.329zm-29.168 3.532-2.827 2.827c-3.034-3.368-4.898-7.809-4.898-12.688 0-2.221.403-4.346 1.107-6.329l3.694 1.53c-.511 1.509-.801 3.119-.801 4.799 0 3.776 1.413 7.221 3.725 9.861zm2.389 9.139h-14.114v-26h3.225c-.779 2.193-1.225 4.543-1.225 7 0 8.401 4.97 15.645 12.114 19zm29.886-19c0-2.457-.446-4.807-1.225-7h3.225v26h-14.114c7.144-3.355 12.114-10.599 12.114-19zm-22-18.949v4c-5.456.362-10.113 3.646-12.428 8.305l-3.697-1.531c2.927-6.105 9.007-10.401 16.125-10.774zm-26 42.949v-32c0-1.654 1.346-3 3-3h6.146c-.399.645-.762 1.312-1.09 2h-4.056c-1.103 0-2 .897-2 2v26c0 1.103.897 2 2 2h46c1.103 0 2-.897 2-2v-26c0-1.103-.897-2-2-2h-4.055c-.328-.688-.692-1.355-1.09-2h6.145c1.654 0 3 1.346 3 3v32c0 1.302-.839 2.402-2 2.816v-3.816h-6v4h-2v-4h-6v4h-35c-1.654 0-3-1.346-3-3zm20 5h14v4h-14zm-6 8c0-1.103.897-2 2-2h22c1.103 0 2 .897 2 2z"/><path d="m24 28c2.206 0 4-1.794 4-4v-6c0-2.206-1.794-4-4-4s-4 1.794-4 4v6c0 2.206 1.794 4 4 4zm-2-10c0-1.103.897-2 2-2s2 .897 2 2v6c0 1.103-.897 2-2 2s-2-.897-2-2z"/><path d="m34 26c-1.103 0-2-.897-2-2h-2c0 2.206 1.794 4 4 4s4-1.794 4-4-1.794-4-4-4c-1.103 0-2-.897-2-2s.897-2 2-2 2 .897 2 2h2c0-2.206-1.794-4-4-4s-4 1.794-4 4 1.794 4 4 4c1.103 0 2 .897 2 2s-.897 2-2 2z"/></g></g></svg>