<?xml version="1.0" encoding="utf-8"?>
<svg version="1.1" id="Capa_1" x="0px" y="0px" viewBox="0 0 512 512" style="enable-background:new 0 0 512 512;" xmlns="http://www.w3.org/2000/svg">
  <g>
    <linearGradient id="SVGID_1_" gradientUnits="userSpaceOnUse" x1="17.2422" y1="618.7109" x2="-48.6148" y2="618.7109" gradientTransform="matrix(8.5333 0 0 -8.5333 369.1334 5433.2671)">
      <stop offset="0" style="stop-color:#4761AC"/>
      <stop offset="1" style="stop-color:#54C2EF"/>
    </linearGradient>
    <path style="fill:url(#SVGID_1_);" d="M95.633,156.1l-17.067-17.067c-3.388-3.277-8.789-3.183-12.066,0.213 c-3.191,3.311-3.191,8.55,0,11.853l17.067,17.067c3.388,3.277,8.789,3.183,12.066-0.213 C98.825,164.651,98.825,159.411,95.633,156.1z"/>
    <linearGradient id="SVGID_2_" gradientUnits="userSpaceOnUse" x1="17.2422" y1="608.6986" x2="-48.6148" y2="608.6986" gradientTransform="matrix(8.5333 0 0 -8.5333 369.1334 5433.2671)">
      <stop offset="0" style="stop-color:#4761AC"/>
      <stop offset="1" style="stop-color:#54C2EF"/>
    </linearGradient>
    <path style="fill:url(#SVGID_2_);" d="M83.567,224.367L66.5,241.434c-3.388,3.277-3.482,8.678-0.213,12.066 c3.277,3.388,8.678,3.482,12.066,0.213c0.068-0.068,0.145-0.137,0.213-0.213l17.067-17.067c3.277-3.388,3.183-8.789-0.213-12.066 C92.117,221.175,86.878,221.175,83.567,224.367z"/>
    <linearGradient id="SVGID_3_" gradientUnits="userSpaceOnUse" x1="17.2422" y1="613.7109" x2="-48.6148" y2="613.7109" gradientTransform="matrix(8.5333 0 0 -8.5333 369.1334 5433.2671)">
      <stop offset="0" style="stop-color:#4761AC"/>
      <stop offset="1" style="stop-color:#54C2EF"/>
    </linearGradient>
    <path style="fill:url(#SVGID_3_);" d="M89.6,187.733H55.467c-4.71,0-8.533,3.823-8.533,8.533s3.823,8.533,8.533,8.533H89.6 c4.71,0,8.533-3.823,8.533-8.533S94.31,187.733,89.6,187.733z"/>
    <linearGradient id="SVGID_4_" gradientUnits="userSpaceOnUse" x1="17.2422" y1="618.7047" x2="-48.6148" y2="618.7047" gradientTransform="matrix(8.5333 0 0 -8.5333 369.1334 5433.2671)">
      <stop offset="0" style="stop-color:#4761AC"/>
      <stop offset="1" style="stop-color:#54C2EF"/>
    </linearGradient>
    <path style="fill:url(#SVGID_4_);" d="M209.067,170.667c2.261,0,4.437-0.896,6.033-2.5l17.067-17.067 c3.277-3.388,3.183-8.789-0.213-12.066c-3.311-3.191-8.55-3.191-11.853,0L203.034,156.1c-3.328,3.337-3.328,8.738,0,12.066 C204.638,169.771,206.805,170.667,209.067,170.667z"/>
    <linearGradient id="SVGID_5_" gradientUnits="userSpaceOnUse" x1="17.2422" y1="608.7109" x2="-48.6148" y2="608.7109" gradientTransform="matrix(8.5333 0 0 -8.5333 369.1334 5433.2671)">
      <stop offset="0" style="stop-color:#4761AC"/>
      <stop offset="1" style="stop-color:#54C2EF"/>
    </linearGradient>
    <path style="fill:url(#SVGID_5_);" d="M203.034,236.433L220.1,253.5c3.388,3.277,8.789,3.183,12.066-0.213 c3.191-3.311,3.191-8.55,0-11.853L215.1,224.367c-3.388-3.277-8.789-3.183-12.066,0.213 C199.842,227.883,199.842,233.122,203.034,236.433z"/>
    <linearGradient id="SVGID_6_" gradientUnits="userSpaceOnUse" x1="17.2422" y1="613.7109" x2="-48.6148" y2="613.7109" gradientTransform="matrix(8.5333 0 0 -8.5333 369.1334 5433.2671)">
      <stop offset="0" style="stop-color:#4761AC"/>
      <stop offset="1" style="stop-color:#54C2EF"/>
    </linearGradient>
    <path style="fill:url(#SVGID_6_);" d="M209.067,204.8H243.2c4.71,0,8.533-3.823,8.533-8.533s-3.823-8.533-8.533-8.533h-34.133 c-4.71,0-8.533,3.823-8.533,8.533S204.356,204.8,209.067,204.8z"/>
    <linearGradient id="SVGID_7_" gradientUnits="userSpaceOnUse" x1="17.2422" y1="606.7109" x2="-48.6148" y2="606.7109" gradientTransform="matrix(8.5333 0 0 -8.5333 369.1334 5433.2671)">
      <stop offset="0" style="stop-color:#4761AC"/>
      <stop offset="1" style="stop-color:#54C2EF"/>
    </linearGradient>
    <path style="fill:url(#SVGID_7_);" d="M396.8,273.067h-42.667v-153.6C354.133,53.487,300.646,0,234.667,0 S115.2,53.487,115.2,119.467v93.867c0,4.71,3.823,8.533,8.533,8.533h51.2c4.71,0,8.533-3.823,8.533-8.533v-93.867 c0-28.279,22.921-51.2,51.2-51.2s51.2,22.921,51.2,51.2v153.6H72.533c-4.71,0-8.533,3.823-8.533,8.533v187.733 c0.026,23.552,19.115,42.641,42.667,42.667h256c23.552-0.026,42.641-19.115,42.667-42.667V281.6 C405.333,276.89,401.51,273.067,396.8,273.067z M234.667,51.2c-37.683,0.043-68.224,30.583-68.267,68.267V204.8h-34.133v-85.333 c0-56.55,45.85-102.4,102.4-102.4s102.4,45.85,102.4,102.4v153.6h-34.133v-153.6C302.891,81.783,272.35,51.243,234.667,51.2z M388.267,469.333c0,14.14-11.46,25.6-25.6,25.6h-256c-14.14,0-25.6-11.46-25.6-25.6v-179.2h307.2V469.333z"/>
    <linearGradient id="SVGID_8_" gradientUnits="userSpaceOnUse" x1="17.2422" y1="594.7109" x2="-48.6148" y2="594.7109" gradientTransform="matrix(8.5333, 0, 0, -8.5333, 370.46108, 5413.351279)">
      <stop offset="0" style="stop-color:#4761AC"/>
      <stop offset="1" style="stop-color:#54C2EF"/>
    </linearGradient>
    <path style="fill:url(#SVGID_8_);" d="M 295.728 304.351 L 176.261 304.351 C 171.551 304.351 167.728 308.174 167.728 312.884 L 167.728 364.084 C 167.728 368.794 171.551 372.617 176.261 372.617 L 295.728 372.617 C 300.438 372.617 304.261 368.794 304.261 364.084 L 304.261 312.884 C 304.261 308.174 300.438 304.351 295.728 304.351 Z M 287.195 355.551 L 184.795 355.551 L 184.795 321.418 L 287.195 321.418 L 287.195 355.551 Z"/>
    <linearGradient id="SVGID_11_" gradientUnits="userSpaceOnUse" x1="17.2422" y1="619.703" x2="-48.6148" y2="619.703" gradientTransform="matrix(8.5333 0 0 -8.5333 369.1334 5433.2671)">
      <stop offset="0" style="stop-color:#4761AC"/>
      <stop offset="1" style="stop-color:#54C2EF"/>
    </linearGradient>
    <path style="fill:url(#SVGID_11_);" d="M456.533,85.333c4.71,0,8.533-3.823,8.533-8.533s-3.823-8.533-8.533-8.533h-25.6v-8.533 c0-4.71-3.823-8.533-8.533-8.533s-8.533,3.823-8.533,8.533v112.145c-18.253,4.71-29.227,23.33-24.516,41.583 s23.33,29.227,41.583,24.516s29.227-23.33,24.516-41.583c-3.106-12.023-12.493-21.41-24.516-24.516v-52.412h25.6 c4.71,0,8.533-3.823,8.533-8.533c0-4.71-3.823-8.533-8.533-8.533h-25.6V85.333H456.533z M439.467,204.8 c0,9.429-7.637,17.067-17.067,17.067s-17.067-7.637-17.067-17.067c0-9.429,7.637-17.067,17.067-17.067 S439.467,195.371,439.467,204.8z"/>
    <linearGradient id="gradient-1" gradientUnits="userSpaceOnUse" x1="17.2422" y1="618.7047" x2="-48.6148" y2="618.7047" gradientTransform="matrix(8.5333 0 0 -8.5333 369.1334 5433.2671)">
      <stop offset="0" style="stop-color:#4761AC"/>
      <stop offset="1" style="stop-color:#54C2EF"/>
    </linearGradient>
    <linearGradient id="gradient-2" gradientUnits="userSpaceOnUse" x1="17.2422" y1="619.703" x2="-48.6148" y2="619.703" gradientTransform="matrix(8.5333 0 0 -8.5333 369.1334 5433.2671)">
      <stop offset="0" style="stop-color:#4761AC"/>
      <stop offset="1" style="stop-color:#54C2EF"/>
    </linearGradient>
    <path style="fill: url(#gradient-1);" d="M209.067,170.667c2.261,0,4.437-0.896,6.033-2.5l17.067-17.067 c3.277-3.388,3.183-8.789-0.213-12.066c-3.311-3.191-8.55-3.191-11.853,0L203.034,156.1c-3.328,3.337-3.328,8.738,0,12.066 C204.638,169.771,206.805,170.667,209.067,170.667z"/>
    <path style="fill: url(#gradient-2);" d="M456.533,85.333c4.71,0,8.533-3.823,8.533-8.533s-3.823-8.533-8.533-8.533h-25.6v-8.533 c0-4.71-3.823-8.533-8.533-8.533s-8.533,3.823-8.533,8.533v112.145c-18.253,4.71-29.227,23.33-24.516,41.583 s23.33,29.227,41.583,24.516s29.227-23.33,24.516-41.583c-3.106-12.023-12.493-21.41-24.516-24.516v-52.412h25.6 c4.71,0,8.533-3.823,8.533-8.533c0-4.71-3.823-8.533-8.533-8.533h-25.6V85.333H456.533z M439.467,204.8 c0,9.429-7.637,17.067-17.067,17.067s-17.067-7.637-17.067-17.067c0-9.429,7.637-17.067,17.067-17.067 S439.467,195.371,439.467,204.8z"/>
  </g>
  <g/>
  <g/>
  <g/>
  <g/>
  <g/>
  <g/>
  <g/>
  <g/>
  <g/>
  <g/>
  <g/>
  <g/>
  <g/>
  <g/>
  <g/>
</svg>